<?xml version="1.0" encoding="UTF-8"?>
<svg width="22px" height="22px" viewBox="0 0 22 22" version="1.1" xmlns="http://www.w3.org/2000/svg" xmlns:xlink="http://www.w3.org/1999/xlink">
    <!-- Generator: Sketch 41.2 (35397) - http://www.bohemiancoding.com/sketch -->
    <title>数据可视化 copy 2</title>
    <desc>Created with Sketch.</desc>
    <defs></defs>
    <g id="Page-1" stroke="none" stroke-width="1" fill="none" fill-rule="evenodd">
        <g id="Artboard" transform="translate(-542.000000, -137.000000)" stroke="#D05340" fill="#D05340">
            <g id="数据可视化-copy-2" transform="translate(543.000000, 137.000000)">
                <g id="Group" transform="translate(1.000000, 1.000000)">
                    <path d="M17.3085937,8.03025303 C17.3648437,8.42592593 17.3953125,8.82874954 17.3953125,9.24110744 C17.3953125,13.9057572 13.6640625,17.6980198 9.0796875,17.6980198 C8.84765625,17.6980198 8.61796875,17.6861019 8.38828125,17.6670334 C8.371875,17.9387605 8.30390625,18.1961863 8.19375,18.4297763 C8.484375,18.4583792 8.78203125,18.4750642 9.0796875,18.4750642 C14.0859375,18.4750642 18.159375,14.3324166 18.159375,9.24110744 C18.159375,8.7477081 18.1195312,8.26145948 18.046875,7.78951228 C17.821875,7.91345801 17.5734375,7.99688302 17.3085937,8.03025303 L17.3085937,8.03025303 Z M0.7640625,9.24110744 C0.7640625,7.92060873 1.0640625,6.66923359 1.5984375,5.55372204 C1.35703125,5.45837917 1.13671875,5.31774844 0.94921875,5.14136414 C0.34453125,6.37843784 0.00234375,7.77044371 0.00234375,9.24110744 C0.00234375,12.582875 1.75546875,15.5146681 4.37578125,17.1354969 C4.42734375,16.8709204 4.528125,16.623029 4.66875,16.4061239 C2.325,14.9068574 0.7640625,12.2563256 0.7640625,9.24110744 L0.7640625,9.24110744 Z M9.0796875,0.00715071507 C6.98203125,0.00715071507 5.053125,0.736523652 3.51328125,1.95452879 C3.721875,2.10707737 3.9,2.30014668 4.03828125,2.52181885 C5.4375,1.43252659 7.1859375,0.784195086 9.0796875,0.784195086 C11.8664063,0.784195086 14.3367188,2.18811881 15.8460938,4.33333333 C16.0523438,4.1760176 16.2867188,4.05922259 16.5421875,3.99009901 C14.8992188,1.58507517 12.16875,0.00715071507 9.0796875,0.00715071507 L9.0796875,0.00715071507 Z" id="Shape" stroke-width="0.5"></path>
                    <path d="M3.23392969,4.71484782 L6.35742187,15.9219014 L5.59300781,16.1422387 L2.46951562,4.93520902 L3.23392969,4.71484782 Z M7.940625,16.7874954 L7.3734375,16.2202054 L16.25625,7.01246791 L16.8257813,7.5773744 L7.940625,16.7874954 Z M15.7054688,6.03281995 L3.55546875,4.02585259 L3.68203125,3.22735607 L15.834375,5.23432343 L15.7054688,6.03281995 Z" id="Shape" stroke-width="0.5" opacity="0.5"></path>
                    <path d="M6.13594073,19.8505512 C5.14125744,19.8505512 4.32947561,19.0275248 4.32947561,18.0159412 C4.32947561,17.0043577 5.13875194,16.1787832 6.13594073,16.1787832 C7.13312953,16.1787832 7.94240586,17.0018096 7.94240586,18.0159412 C7.94240586,19.0300728 7.13062403,19.8505512 6.13594073,19.8505512 Z M6.13594073,17.0425787 C5.60978584,17.0425787 5.17883993,17.4782986 5.17883993,18.0159412 C5.17883993,18.5535839 5.60728034,18.9867557 6.13594073,18.9867557 C6.66460113,18.9867557 7.09304154,18.5510358 7.09304154,18.0159412 C7.09304154,17.4808466 6.66209563,17.0425787 6.13594073,17.0425787 Z M17.5685349,7.50005884 C16.5738516,7.50005884 15.7645752,6.67703243 15.7645752,5.66544888 C15.7645752,4.65386533 16.5738516,3.83083892 17.5685349,3.83083892 C18.5632182,3.83083892 19.375,4.65386533 19.375,5.66544888 C19.375,6.67703243 18.5657237,7.50005884 17.5685349,7.50005884 Z M17.5685349,4.69208637 C17.04238,4.69208637 16.6139396,5.12780624 16.6139396,5.66290081 C16.6139396,6.19799538 17.04238,6.63371525 17.5685349,6.63371525 C18.0946898,6.63371525 18.5256357,6.19799538 18.5256357,5.66290081 C18.5256357,5.12780624 18.0971953,4.69208637 17.5685349,4.69208637 Z M1.81896513,4.98256628 C0.824281832,4.98256628 0.0125,4.15953987 0.0125,3.14795632 C0.0125,2.13637277 0.821776333,1.31079829 1.81896513,1.31079829 C2.81615392,1.31079829 3.62292475,2.1338247 3.62292475,3.14795632 C3.62292475,4.16208794 2.81364842,4.98256628 1.81896513,4.98256628 Z M1.81896513,2.17459381 C1.29281024,2.17459381 0.861864325,2.61031368 0.861864325,3.14795632 C0.861864325,3.68559896 1.29030474,4.11877076 1.81896513,4.11877076 C2.34512002,4.11877076 2.77356043,3.68305089 2.77356043,3.14795632 C2.77356043,2.61286175 2.34512002,2.17459381 1.81896513,2.17459381 Z" id="Shape" stroke-width="0.660000026"></path>
                </g>
            </g>
        </g>
    </g>
</svg>